<svg xmlns="http://www.w3.org/2000/svg" width="11.13mm" height="11.48mm" viewBox="0 0 31.56 32.53">
  <defs>
    <style>
      .cls-1 {
        fill: #00b2ba;
      }
    </style>
  </defs>
  <g id="Layer_2" data-name="Layer 2">
    <g id="Layer_1-2" data-name="Layer 1">
      <path class="cls-1" d="M17.61,0A13.51,13.51,0,0,1,28.23,4.43q3.94,4.44,3.21,11.22a17.53,17.53,0,0,1-5.35,11.21,15.83,15.83,0,0,1-11.36,4.41,15,15,0,0,1-11-4.3C.82,24.1-.37,20.43.1,15.93A17.26,17.26,0,0,1,5.86,4.6,16.91,16.91,0,0,1,17.61,0Z"/>
      <path class="cls-1" d="M27.64,18.43s-2.45,9.82,0,11.58-1.28,4.67-9.47,0"/>
    </g>
  </g>
</svg>
