<svg xmlns="http://www.w3.org/2000/svg" id="prefix__Layer_1" width="198.38" height="187.88"
            viewBox="0 0 198.38 187.88">
            <defs>
                <style>
                    .prefix__cls-248Dhed {
                        fill: none;
                        stroke: #12171e;
                        stroke-linecap: round;
                        stroke-linejoin: round;
                        stroke-width: 4px
                    }
                </style>
            </defs>
            <path fill="#fff"
                d="M69.91 184.65c1.66.49 3.3 1 4.94 1.58 31.86 10.69 113.86-31.94 111.35-90.33-1.47-34.21-2.07-59.48-39.77-84C128.64.35 80.05-13.16 38.8 26.1c0 0-59.54 49.74-26.83 115 14.37 28.8 47.83 40.57 57.94 43.55Z" />
            <path
                d="M113.85 145.52S79.52 125.4 39.24 153L15.06 67.78l-4.57-16.12s25.26-27.91 74.5-7.86c0 0 15.73-29.35 66.49-31.73l28.86 101.73s-56.14-3.56-66.49 31.72Z"
                class="prefix__cls-248Dhed" />
            <path d="M15.06 67.78 2 77.29l26.25 92.52s35.46-32.88 85.6-24.29c0 0 23.57-29.5 82.53-23.42l-26.25-92.51"
                class="prefix__cls-248Dhed" />
            <path d="M84.99 43.8 113.85 145.52" class="prefix__cls-248Dhed" />
        </svg>