<?xml version="1.0" encoding="utf-8"?>
<!-- Generator: Adobe Illustrator 25.3.1, SVG Export Plug-In . SVG Version: 6.00 Build 0)  -->
<svg version="1.1" id="prefix__Layer_1" xmlns="http://www.w3.org/2000/svg" xmlns:xlink="http://www.w3.org/1999/xlink" x="0px"
	 y="0px" viewBox="0 0 206.7 101.5" style="enable-background:new 0 0 206.7 101.5;" xml:space="preserve">
<style type="text/css">
	.st0{fill:#4CAEB8;}
</style>
<path class="st0" d="M8,33.7c0.7,1.2,1,2.6,0.8,3.9C8,44.3,8.4,51,8.4,57.7c0,2-0.2,4-0.1,5.9c0,1.4-0.3,2.8-0.2,4.2
	c0,0.2-0.2,0.6-0.5,0.7C6.4,68.9,5.3,69,4.2,69c-0.3,0-4,0.1-4-0.3C0.1,68.3,0,67.8,0,67.4c0-6,0-11.9,0-17.9v-5.2l0.2-10.2
	C0.2,32.4,7.8,33.4,8,33.7z M23.2,33.4c2.3,0.2,4.6,0.2,6.9,0c5.8-0.2,11.7-0.3,17.6,0c0.2,0,0.3,0.1,0.5,0.2l0.2,1.2v4.7
	c0,2.9-6.2,0.9-10.1,2v8.1c0.1,5.8,0.4,11.6,0.2,17.4c0,0.4,0.2,1.9-0.2,1.9H34c-2-0.1-2.2,0-4.4,0c-0.4,0,0-4.4,0-5
	c0.1-1.4,0.2-2.9,0.2-4.3c0-3.6,0-7.5,0-11.1c0-2.6,0-3.5,0-6.8c-2,0-6,0-7.7,0.1s-2.8-0.4-3.2-2.1c-0.4-2,0-4.2,0.9-6
	C20.9,33.4,22.1,33.3,23.2,33.4L23.2,33.4z M71.1,63.5c-0.8,0-1.5-0.2-2.2-0.2c-2,0-4,0.1-5.9,0c-1,0-1.2,0.2-1.5,1.1
	c-0.4,1.2-0.6,2.9-1.5,3.8c-0.8,0.8-2,0.6-2.9,0.6s-5.3,0.4-4.7-1.5c0.2-0.8,0.3-1.6,0.7-2.4c1.4-4,2.5-8,4-12
	c0.4-1.2,0.8-2.3,1.3-3.5c1.6-4.5,2.5-9.3,4.3-13.7c0.3-0.7,0.8-1.4,1.3-2c1.9-0.3,3.8-0.4,5.7-0.2c0.7,0,1.3,0.4,1.5,1.1
	c2.8,6,3.4,12.6,5.2,18.9c0.6,1.9,1.2,3.7,1.8,5.6c0.8,2.6,1.3,5.3,2.1,8c0.2,1,0.2,1.8-1,1.8c-1.8,0-3.4,0.2-5.4,0.2
	c-1.2,0-1.7-0.3-1.9-1.4L71.1,63.5z M64,55.4c1.7,0.2,3.5,0.2,5.2,0.2c-0.5-3.5-1.4-7-2.4-10.4C66.8,45.1,63.9,54.8,64,55.4z
	 M98.3,33.7c0,5.7-0.1,12.4-0.3,18.2c-0.1,1.9,0,3.9,0.1,5.8c0,1,0.2,2.9,1.1,3.5c0.8,0.5,2,0.3,2.8,0.3c1.2,0,2.4,0,3.6-0.1
	c1.1-0.1,2.7-0.5,3.3,0.7c0.6,1,0.2,2.7,0.2,3.8c0,2-0.2,3-2.5,3.2c-2.4,0.1-4.8,0-7.2-0.2c-1.7,0-3.4,0.2-5.1,0.2
	c-1-0.1-3.3-0.1-3.8-1.1c-0.2-0.5-0.3-1.1-0.3-1.7c-0.3-5.2,0.4-10.4,0.3-15.5s-1-10.2-0.4-15.3c0-0.5,0.3-1.1,0.4-1.7
	c1.8-0.4,3.6-0.6,5.4-0.5L98.3,33.7z M127.5,33.7c0.7,1.2,1,2.6,0.8,3.9c-0.8,6.7-0.3,13.4-0.4,20.1c0,2-0.2,4-0.1,5.9
	c0,1.4-0.4,2.8-0.2,4.2c0,0.2-0.3,0.6-0.5,0.7c-1.1,0.4-2.2,0.5-3.4,0.5c-0.3,0-4,0.1-4-0.3c-0.1-0.4-0.1-0.8-0.2-1.2
	c0-6,0-11.9,0-17.9v-5.2l0.2-10.2C119.7,32.4,127.3,33.4,127.5,33.7L127.5,33.7z M156.8,63.5c-0.8,0-1.5-0.2-2.2-0.2
	c-2,0-4,0.1-5.9,0c-1,0-1.2,0.2-1.5,1.1c-0.4,1.2-0.6,2.9-1.5,3.8s-2,0.6-2.9,0.6s-5.3,0.4-4.7-1.5c0.2-0.8,0.3-1.6,0.7-2.4
	c1.4-4,2.5-8,4-12c0.4-1.2,0.8-2.3,1.2-3.5c1.6-4.5,2.5-9.3,4.3-13.7c0.3-0.7,0.8-1.4,1.3-2c1.9-0.3,3.8-0.4,5.7-0.2
	c0.7,0,1.3,0.4,1.6,1.1c2.8,6,3.4,12.6,5.2,18.9c0.5,1.9,1.2,3.7,1.8,5.6c0.8,2.6,1.4,5.3,2.1,8c0.2,1,0.2,1.8-1,1.8
	c-1.8,0-3.4,0.2-5.4,0.2c-1.2,0-1.7-0.3-1.9-1.4L156.8,63.5z M149.6,55.4c1.7,0.2,3.5,0.2,5.2,0.2c-0.5-3.5-1.3-7-2.4-10.4
	C152.4,45.1,149.5,54.8,149.6,55.4z M198,33.7c1.9-0.1,3.7-0.6,5.5-0.3c1,0.2,2.1-0.2,3.2,0.5c-0.2,0.3-0.3,0.6-0.3,0.9
	c0.1,4.6-0.5,9.2-0.4,13.8c0.1,6.8-0.2,13.5-0.5,20.2c0,0,0,0.1-0.2,0.2c-0.9,0.3-1.9,0.4-2.8,0.2c-1.9-0.1-3.7-0.1-5.8-0.1
	c-0.4-0.6-0.8-1.2-1.2-1.9c-0.5-0.8-1-1.6-1.6-2.4c-1.1-1.6-2.2-3.1-3.3-4.7s-3.6-5.4-6.2-8.5c-0.2,6.4-0.2,9.2-0.2,10.6
	c-0.1,1.9-0.1,3.8-0.1,5.8c0,0.2-0.1,0.5-0.2,0.7c-1.6,0.8-3.2,0.4-4.8,0.5c-1.1,0-3.1,0.2-3.6-1c-0.5-1,0.2-2.1,0.2-3.1
	c0-1.5,0-3,0-4.5c0-3,0-6,0-9.1l-0.1-5.6c0-2-0.1-3.9-0.2-5.8s0.2-4.2-0.1-6.3c1.7-0.3,3.4-0.4,5.1-0.5c1.1,0,2.1,0.1,3.2,0.3
	c1.6,2.9,3.4,5.7,5.5,8.4c2.4,3.1,4.9,7.3,8.4,11.2c0.4-5,0.5-9.9,0.2-14.9c0-0.9-0.1-1.8-0.2-2.7C197.7,35,197.8,34.3,198,33.7
	L198,33.7z"/>
</svg>
