<svg xmlns="http://www.w3.org/2000/svg" width="86.6" height="70.1" viewBox="0 0 86.6 70.1">
    <path fill="currentColor" d="M18.3 0c10.9 0 20.5 7.7 20.5 25.1 0 19-8 33.2-15.4 43.8-1.2 1.7-3 1.5-4.8.2l-6.9-4.6c-1.7-1.1-1.2-3.2 0-5.1a50.6 50.6 0 0 0 10.5-26 5.1 5.1 0 0 0-.2-1.7 13.4 13.4 0 0 1-7.5 2.1C4.9 33.8.1 26.2.1 17.3.1 7.5 7.9 0 18.3 0Zm47.9 0C77 0 86.6 7.7 86.6 25.1c0 19-7.9 33.2-15.3 43.8-1.3 1.7-3 1.5-4.9.2l-6.8-4.6c-1.7-1.1-1.3-3.2 0-5.1a50.6 50.6 0 0 0 10.4-26 5.1 5.1 0 0 0-.2-1.7 13.4 13.4 0 0 1-7.4 2.1c-9.6 0-14.5-7.6-14.5-16.5C47.9 7.5 55.8 0 66.2 0Z"/>
</svg>
