<svg xmlns="http://www.w3.org/2000/svg" width="86.6" height="70.1" viewBox="0 0 86.6 70.1">
    <path fill="currentColor" d="M20.4 70.1C9.6 70.1 0 62.5 0 45.1 0 26 7.9 11.7 15.3 1.1c1.3-1.7 3-1.5 4.9-.2L27 5.7c1.7 1 1.5 3 0 5a48.1 48.1 0 0 0-10.4 26 5.4 5.4 0 0 0 .2 1.8 13.3 13.3 0 0 1 7.5-2.2c9.5 0 14.4 7.7 14.4 16.6 0 9.8-7.9 17.2-18.3 17.2Zm47.9 0c-10.9 0-20.4-7.6-20.4-25 0-19 7.8-33.3 15.3-43.9 1.2-1.7 3-1.5 4.9-.2l6.8 4.7c1.7 1 1.5 3 0 5a48.1 48.1 0 0 0-10.5 26 5.4 5.4 0 0 0 .3 1.8 13.4 13.4 0 0 1 7.4-2.1c9.6 0 14.5 7.6 14.5 16.6 0 9.7-8 17.1-18.3 17.1Z"/>
</svg>
