<svg xmlns="http://www.w3.org/2000/svg" id="prefix__Layer_1" width="187.32" height="184.18" viewBox="0 0 187.32 184.18">
    <defs>
        <style>
            .prefix__cls-2akdkefd1{fill:none;stroke:#12171e;stroke-linecap:round;stroke-linejoin:round;stroke-width:4px}
        </style>
    </defs>
    <path fill="#fff" d="M3.81 64.93c-.55 1.64-1.14 3.27-1.74 4.89-11.77 31.48 28 114.88 86.47 114.36 34.25-.3 59.52 0 85.26-36.88 12.15-17.39 27.31-65.5-10.52-108.06 0 0-47.69-61.2-114.07-30.74C20.04 21.89 7.13 54.93 3.81 64.93Z"/>
    <path d="m79.38 129.15 28.82 6.54a5.07 5.07 0 0 0 6-6.44l-11.68-37.71L89.88 50.7a3.18 3.18 0 0 0-5.37-1.22L58.67 77.32a29.45 29.45 0 0 1-8.63 6.43 72.06 72.06 0 0 1-16.24 6.39c-13.91 3.26-7.08 38.05 8.26 38.82 3.57.17 8.21-1.65 12.87-1.91a87.65 87.65 0 0 1 24.45 2.1Zm17.14-58.01a18.07 18.07 0 1 1 10.52 34.57m6.68-52.32a33.41 33.41 0 0 1 17.82 59.36" class="prefix__cls-2akdkefd1"/>
    <path d="M114.48 34.6a53.55 53.55 0 0 1 27.88 93.59" class="prefix__cls-2akdkefd1"/>
</svg>
