 <svg xmlns="http://www.w3.org/2000/svg" width="458.73" height="47.47"
            viewBox="0 0 458.73 47.47">
            <path fill="#ffd800"
                d="M397.29 47.46q-2.47 0-5-.12c-24.3-1.23-45.47-11.09-56.63-26.39l-1.4-1.92c-4.39-6.06-8.55-11.79-11.3-11.79-1 0-3.26.88-7.23 6.58-.67 1-16.93 24.45-39 27.59-10 1.42-19.5-1.53-28.27-8.76-26.8-22.09-35.3-13.22-45.13-3-2.89 3-5.89 6.15-9.36 8.36-27.22 17.34-53.78 4.49-75.12-5.84-19.32-9.35-31.63-14.6-40.72-5.19C66.89 38.6 55.34 44.37 43.76 44.12c-18.19-.39-31.51-15.4-38.66-23.46a47.11 47.11 0 0 0-3.77-4 3.624 3.624 0 0 1 4.6-5.6 47.26 47.26 0 0 1 4.59 4.79c18.37 20.7 28.14 20.91 33.4 21 9.46.21 19.22-4.82 29-14.93 13.2-13.65 30.63-5.22 49.09 3.71 20.74 10 44.26 21.41 68.07 6.25a47.06 47.06 0 0 0 8-7.26c5.16-5.38 11-11.48 19.84-12.73 9.81-1.38 21 3.42 35.14 15.09 7.13 5.89 14.75 8.3 22.64 7.18 18.95-2.69 33.91-24.31 34.06-24.53 4.65-6.68 8.7-9.66 13.13-9.7h.11c6.45 0 10.95 6.2 17.17 14.77l1.39 1.92c9.88 13.54 29 22.3 51.13 23.41 24 1.21 46.34-7 59.74-21.94a3.62 3.62 0 0 1 5.39 4.83c-13.91 15.58-36.25 24.54-60.53 24.54Z" />
        </svg>